
<svg width="512" height="512" viewBox="0 0 512 512" fill="none" xmlns="http://www.w3.org/2000/svg">
  <path d="M48 96H464C468.4 96 472 99.6 472 104V408C472 412.4 468.4 416 464 416H48C43.6 416 40 412.4 40 408V104C40 99.6 43.6 96 48 96Z" stroke="#0A3B82" stroke-width="32" stroke-linecap="round" stroke-linejoin="round"/>
  <path d="M256 96V64C256 59.6 259.6 56 264 56H248C252.4 56 256 59.6 256 64V96" stroke="#0A3B82" stroke-width="32" stroke-linecap="round" stroke-linejoin="round"/>
  <circle cx="168" cy="192" r="32" stroke="#0A3B82" stroke-width="24"/>
  <circle cx="168" cy="320" r="32" stroke="#0A3B82" stroke-width="24"/>
  <rect x="240" y="160" width="160" height="64" rx="8" stroke="#0A3B82" stroke-width="24"/>
  <rect x="240" y="288" width="160" height="64" rx="8" stroke="#0A3B82" stroke-width="24"/>
  <rect x="240" y="160" width="160" height="64" rx="8" fill="#FFC278"/>
  <rect x="240" y="288" width="160" height="64" rx="8" fill="#FFC278"/>
  <rect x="136" y="160" width="64" height="64" rx="8" fill="#FF6B6B"/>
  <rect x="136" y="288" width="64" height="64" rx="8" fill="#FF6B6B"/>
  <circle cx="416" cy="320" r="16" fill="#CA9AEF"/>
  <rect x="368" y="288" width="32" height="64" rx="8" fill="#7DD1CF"/>
</svg>
