
<svg width="512" height="512" viewBox="0 0 512 512" fill="none" xmlns="http://www.w3.org/2000/svg">
  <path d="M320 256C320 291.3 291.3 320 256 320C220.7 320 192 291.3 192 256C192 220.7 220.7 192 256 192C291.3 192 320 220.7 320 256Z" fill="black"/>
  <path d="M320 256C320 291.3 291.3 320 256 320C220.7 320 192 291.3 192 256C192 220.7 220.7 192 256 192C291.3 192 320 220.7 320 256Z" stroke="black" stroke-width="32"/>
  <path d="M301.5 80H210.5C200.3 80 191.6 87.4 189.8 97.4L179.4 150.3C156.7 161.9 138.2 179.2 125.6 201L73.8 186.7C64.2 183.9 53.7 188.6 49.2 197.7L3.69 276.3C-0.811 285.4 1.32 296.5 9.21 303.3L52.1 340C50.8 352.4 50.8 364.9 52.1 377.3L9.21 414C1.32 420.8 -0.811 431.9 3.69 441L49.2 519.6C53.7 528.7 64.2 533.4 73.8 530.6L125.6 516.3C138.2 538.1 156.7 555.4 179.4 567L189.8 619.9C191.6 629.9 200.3 637.3 210.5 637.3H301.5C311.7 637.3 320.4 629.9 322.2 619.9L332.6 567C355.3 555.4 373.8 538.1 386.4 516.3L438.2 530.6C447.8 533.4 458.3 528.7 462.8 519.6L508.3 441C512.8 431.9 510.7 420.8 502.8 414L459.9 377.3C461.2 364.9 461.2 352.4 459.9 340L502.8 303.3C510.7 296.5 512.8 285.4 508.3 276.3L462.8 197.7C458.3 188.6 447.8 183.9 438.2 186.7L386.4 201C373.8 179.2 355.3 161.9 332.6 150.3L322.2 97.4C320.4 87.4 311.7 80 301.5 80Z" stroke="black" stroke-width="32" stroke-linecap="round" stroke-linejoin="round"/>
  <circle cx="256" cy="256" r="80" stroke="#40D6D6" stroke-width="32"/>
</svg>
