
<svg width="400" height="400" viewBox="0 0 400 400" xmlns="http://www.w3.org/2000/svg">
  <rect width="400" height="400" fill="#FFFFF3" fill-opacity="0"/>
  <g transform="translate(50, 50) scale(0.75)">
    <!-- Blue Hat Pom -->
    <circle cx="310" cy="105" r="35" fill="#1E71E5"/>
    
    <!-- Red Head -->
    <path d="M250 220C320 220 390 150 390 80C390 40 350 10 310 10C270 10 220 40 220 80C220 120 230 160 250 220Z" fill="#FF3355"/>
    
    <!-- Blue Hat Band -->
    <path d="M220 130C220 130 240 110 310 110C380 110 400 130 400 130L380 170C380 170 350 150 310 150C270 150 240 170 240 170L220 130Z" fill="#1E71E5"/>
    
    <!-- ROSHLINGUA Text -->
    <text x="310" y="163" font-family="Arial" font-size="36" font-weight="bold" fill="white" text-anchor="middle">ROSHLINGUA</text>
    
    <!-- Eye White -->
    <circle cx="290" cy="195" r="25" fill="white"/>
    
    <!-- Eye Pupil -->
    <circle cx="290" cy="195" r="12" fill="#003344"/>
    
    <!-- Orange Beak -->
    <path d="M340 200L380 210L340 220Z" fill="#FF7733"/>
    
    <!-- Yellow Scarf -->
    <path d="M250 220C250 220 200 230 200 280C200 330 220 330 220 330H280C280 330 250 310 250 280C250 250 280 240 280 240L250 220Z" fill="#FFBB00"/>
    
    <!-- Green Body -->
    <path d="M150 400C230 400 280 350 280 280C280 230 240 220 200 220C160 220 120 230 120 280C120 350 70 400 150 400Z" fill="#006655"/>
    
    <!-- Lighter Green Wing -->
    <path d="M200 400C260 400 300 350 300 280C300 250 280 240 280 240C280 240 260 250 250 280C240 310 240 350 200 400Z" fill="#00BBAA"/>
    
    <!-- Yellow Scarf Hanging -->
    <path d="M280 240C280 240 300 270 300 320C300 340 290 350 290 350L310 370L310 330L330 350L330 310L350 330L350 290L370 310L350 270L330 290L310 250L300 240L280 240Z" fill="#FFBB00"/>
    
    <!-- Orange Legs -->
    <rect x="195" y="390" width="10" height="40" fill="#FF7733"/>
    <rect x="220" y="390" width="10" height="40" fill="#FF7733"/>
    
    <!-- Speech Bubble -->
    <circle cx="420" cy="160" r="60" fill="#FFF6E0"/>
    
    <!-- Ellipsis Dots -->
    <circle cx="400" cy="160" r="8" fill="#003344"/>
    <circle cx="420" cy="160" r="8" fill="#003344"/>
    <circle cx="440" cy="160" r="8" fill="#003344"/>
  </g>
</svg>
